<?xml version="1.0" encoding="utf-8"?>
<!-- Generator: Adobe Illustrator 24.1.1, SVG Export Plug-In . SVG Version: 6.00 Build 0)  -->
<svg version="1.1" id="Layer_1" xmlns="http://www.w3.org/2000/svg" xmlns:xlink="http://www.w3.org/1999/xlink" x="0px" y="0px"
	 viewBox="0 0 124.2 150.6" style="enable-background:new 0 0 124.2 150.6;" xml:space="preserve">
<style type="text/css">
	.st0{clip-path:url(#SVGID_2_);}
	.st1{clip-path:url(#SVGID_4_);}
	.st2{fill:#4DB198;}
	.st3{fill:#FFFFFF;}
</style>
<g>
	<g>
		<defs>
			<rect id="SVGID_1_" x="-5367.8" y="268.3" width="1004.2" height="1517.1"/>
		</defs>
		<clipPath id="SVGID_2_">
			<use xlink:href="#SVGID_1_"  style="overflow:visible;"/>
		</clipPath>
		<g class="st0">
			
				<image style="overflow:visible;enable-background:new    ;" width="3793" height="1070" xlink:href="4555714.jpeg"  transform="matrix(2.0565 0 0 2.0565 -6020.7031 -228.6683)">
			</image>
		</g>
	</g>
</g>
<g>
	<g>
		<defs>
			<rect id="SVGID_3_" x="-4320.3" y="261.1" width="975.3" height="1589.3"/>
		</defs>
		<clipPath id="SVGID_4_">
			<use xlink:href="#SVGID_3_"  style="overflow:visible;"/>
		</clipPath>
		<g class="st1">
			
				<image style="overflow:visible;enable-background:new    ;" width="3793" height="1070" xlink:href="4555714.jpeg"  transform="matrix(2.0565 0 0 2.0565 -4958.7397 -127.5289)">
			</image>
		</g>
	</g>
</g>
<g>
	<g>
		<g>
			<path class="st2" d="M1.4-98.9h-9.5v28.7h-20v-87.3H6.9c16.6,0,29.9,13.3,29.9,29.9c0,10.7-6.5,20.5-16.1,25.3l18.6,32H17.9
				L1.4-98.9z M-8.1-116.4h15c5.5,0,10-4.9,10-11.2c0-6.4-4.5-11.2-10-11.2h-15V-116.4z"/>
			<path class="st2" d="M103.5-89.5v19.2H48.7v-87.3h54.2v19.2H68.6v14.5h31.2v18.9H68.6v15.5H103.5z"/>
			<path class="st3" d="M110.4-113.9c0-25.7,19.1-45.4,45.4-45.4c15.8,0,29.8,7.8,37.4,20.2l-17.2,10c-3.9-6.7-11.3-10.7-20.2-10.7
				c-15.5,0-25.4,10.4-25.4,25.9s10,25.9,25.4,25.9c8.9,0,16.5-4,20.2-10.7l17.2,10c-7.5,12.3-21.4,20.2-37.4,20.2
				C129.4-68.5,110.4-88.2,110.4-113.9z"/>
			<path class="st3" d="M222.4-157.5v87.3h-19.9v-87.3H222.4z"/>
			<path class="st3" d="M301-127.6c0,16.6-13.3,29.9-30.5,29.9h-13.1v27.4h-20v-87.3h33C287.6-157.5,301-144.2,301-127.6z
				 M281-127.6c0-6.4-4.5-11.2-10.6-11.2h-13.1v22.4h13.1C276.5-116.4,281-121.3,281-127.6z"/>
			<path class="st3" d="M365.8-89.5v19.2H311v-87.3h54.2v19.2h-34.3v14.5h31.2v18.9h-31.2v15.5H365.8z"/>
		</g>
	</g>
	<path class="st3" d="M540.8-162.5c0-2.3-1.6-4.4-3.9-5l-78.2-22.4c-0.3-0.1-0.6-0.1-0.9-0.2c-0.9-0.1-21.5-1.8-36.3,25.3
		c-0.3,0.5-0.4,0.9-0.5,1.4c-0.2,0.3-0.4,0.8-0.4,1.6l-2.2,88.1c0,2.6,1.5,4.9,4,5.9l21.4,8.1l0.3-31.2c0-0.9-0.2-1.7-0.7-2.4
		l-6.4-9.7c-0.4-0.6-0.6-1.3-0.6-2.1l-0.1-38.1c0-0.8,0.9-1.3,1.6-1l1.7,0.9c0.8,0.4,1.3,1.3,1.3,2.1l-0.4,26.4l4.4,1.8l0.5-27.2
		c0-0.9,0.9-1.5,1.8-1.1l1.4,0.6c0.8,0.3,1.3,1.1,1.3,2l-0.2,26.8l4.8,1.4l0.3-25.9c0-1.1,1.1-1.9,2.1-1.5l1,0.3
		c0.5,0.2,0.9,0.7,0.9,1.2l-0.5,39.4c0,1.1-0.5,2-1.3,2.7l-3.9,3c-0.8,0.6-1.3,1.6-1.3,2.6l-0.6,31.6l23.1,8.7v-43
		c-4.6-4.1-9.5-13.7-9.4-21.7c0.1-12.7,4.7-19.6,10.5-20c7.8-0.4,15.6,15.6,15.8,28.2c0.2,9.7-3.6,14.2-9.6,15.3v43.9l15.2,5.7
		c3.6,0.9,10.4-1.4,10.4-8.4l-0.3-87.7c0-2.7-1.8-5.1-4.3-5.9l-67.7-21.4c-0.5-0.2-1.1-0.3-1.6-0.3c9.9-15.3,21-16.1,23.3-16.1
		l73.8,21.2l1.7,88.8c0.1,2.9,2.4,5.2,5.3,5.2c0,0,0.1,0,0.1,0c3-0.1,5.3-2.5,5.2-5.4L540.8-162.5z"/>
</g>
<g>
	<path class="st2" d="M73.8,17.4c0-1.4-1-2.6-2.3-3L24.8,1c-0.2-0.1-0.4-0.1-0.6-0.1C23.7,0.8,11.4-0.2,2.5,16
		c-0.1,0.3-0.3,0.6-0.3,0.9C2.1,17,2,17.3,2,17.8L0.7,70.5c0,1.5,0.9,3,2.4,3.5l12.8,4.8L16,60.2c0-0.5-0.1-1-0.4-1.4L11.8,53
		c-0.2-0.4-0.4-0.8-0.4-1.2L11.4,29c0-0.5,0.5-0.8,0.9-0.6l1,0.5c0.5,0.2,0.8,0.7,0.8,1.3L13.9,46l2.6,1.1l0.3-16.2
		c0-0.5,0.6-0.9,1-0.7l0.9,0.4c0.5,0.2,0.8,0.7,0.8,1.2l-0.1,16l2.9,0.8l0.2-15.5c0-0.7,0.6-1.1,1.3-0.9l0.6,0.2
		c0.3,0.1,0.5,0.4,0.5,0.7l-0.3,23.5c0,0.6-0.3,1.2-0.8,1.6l-2.3,1.8c-0.5,0.4-0.8,0.9-0.8,1.6l-0.3,18.9l13.8,5.2V60
		c-2.8-2.5-5.7-8.2-5.6-13c0.1-7.6,2.8-11.7,6.3-11.9c4.7-0.3,9.3,9.3,9.4,16.9c0.1,5.8-2.1,8.5-5.7,9.2v26.2l9.1,3.4
		c2.1,0.6,6.2-0.8,6.2-5l-0.2-52.4c0-1.6-1.1-3-2.6-3.5L10.5,17c-0.3-0.1-0.7-0.2-1-0.2C15.4,7.7,22,7.2,23.4,7.2l44.1,12.7l1,53.1
		c0,1.7,1.5,3.1,3.2,3.1c0,0,0,0,0.1,0c1.8,0,3.2-1.5,3.1-3.2L73.8,17.4z"/>
</g>
</svg>
